<svg xmlns="http://www.w3.org/2000/svg" viewBox="0 0 32 32" width="32" height="32" shape-rendering="crispEdges">
  <!-- Pixel art "P" favicon - PattPay brand -->
  <!-- Row 0: top bar of P -->
  <rect x="4" y="2" width="4" height="4" fill="#4F46E5"/>
  <rect x="8" y="2" width="4" height="4" fill="#4F46E5"/>
  <rect x="12" y="2" width="4" height="4" fill="#4F46E5"/>
  <rect x="16" y="2" width="4" height="4" fill="#4F46E5"/>
  <rect x="20" y="2" width="4" height="4" fill="#4F46E5"/>
  <!-- Row 1: stem + right side of bump -->
  <rect x="4" y="6" width="4" height="4" fill="#4F46E5"/>
  <rect x="8" y="6" width="4" height="4" fill="#4F46E5"/>
  <rect x="20" y="6" width="4" height="4" fill="#4F46E5"/>
  <rect x="24" y="6" width="4" height="4" fill="#4F46E5"/>
  <!-- Row 2: stem + right side of bump -->
  <rect x="4" y="10" width="4" height="4" fill="#4F46E5"/>
  <rect x="8" y="10" width="4" height="4" fill="#4F46E5"/>
  <rect x="20" y="10" width="4" height="4" fill="#4F46E5"/>
  <rect x="24" y="10" width="4" height="4" fill="#4F46E5"/>
  <!-- Row 3: middle bar closing the bump -->
  <rect x="4" y="14" width="4" height="4" fill="#4F46E5"/>
  <rect x="8" y="14" width="4" height="4" fill="#4F46E5"/>
  <rect x="12" y="14" width="4" height="4" fill="#4F46E5"/>
  <rect x="16" y="14" width="4" height="4" fill="#4F46E5"/>
  <rect x="20" y="14" width="4" height="4" fill="#4F46E5"/>
  <!-- Row 4: stem -->
  <rect x="4" y="18" width="4" height="4" fill="#4F46E5"/>
  <rect x="8" y="18" width="4" height="4" fill="#4F46E5"/>
  <!-- Row 5: stem -->
  <rect x="4" y="22" width="4" height="4" fill="#4F46E5"/>
  <rect x="8" y="22" width="4" height="4" fill="#4F46E5"/>
  <!-- Row 6: stem -->
  <rect x="4" y="26" width="4" height="4" fill="#4F46E5"/>
  <rect x="8" y="26" width="4" height="4" fill="#4F46E5"/>
</svg>
