<svg width="200" height="120" viewBox="0 0 200 120" xmlns="http://www.w3.org/2000/svg">
  <!-- Definição da paleta de cores -->
  <defs>
    <style>
      .cloud-highlight { fill: #F5F2FA; }
      .cloud-light { fill: #E8E3F0; }
      .cloud-mid { fill: #D4C9E0; }
      .cloud-dark { fill: #C2B5D4; }
      .cloud-shadow { fill: #B0A1C7; }
      .cloud-outline { fill: #9A8BB8; }
    </style>
  </defs>
  
  <!-- Contorno/sombra mais escura -->
  <g class="cloud-outline">
    <!-- Base da nuvem -->
    <rect x="24" y="88" width="8" height="8"/>
    <rect x="32" y="88" width="8" height="8"/>
    <rect x="40" y="88" width="8" height="8"/>
    <rect x="48" y="88" width="8" height="8"/>
    <rect x="56" y="88" width="8" height="8"/>
    <rect x="64" y="88" width="8" height="8"/>
    <rect x="72" y="88" width="8" height="8"/>
    <rect x="80" y="88" width="8" height="8"/>
    <rect x="88" y="88" width="8" height="8"/>
    <rect x="96" y="88" width="8" height="8"/>
    <rect x="104" y="88" width="8" height="8"/>
    <rect x="112" y="88" width="8" height="8"/>
    <rect x="120" y="88" width="8" height="8"/>
    <rect x="128" y="88" width="8" height="8"/>
    <rect x="136" y="88" width="8" height="8"/>
    <rect x="144" y="88" width="8" height="8"/>
    <rect x="152" y="88" width="8" height="8"/>
    <rect x="160" y="88" width="8" height="8"/>
    <rect x="168" y="88" width="8" height="8"/>
    
    <!-- Laterais do contorno -->
    <rect x="16" y="80" width="8" height="8"/>
    <rect x="8" y="72" width="8" height="8"/>
    <rect x="8" y="64" width="8" height="8"/>
    <rect x="8" y="56" width="8" height="8"/>
    <rect x="16" y="48" width="8" height="8"/>
    
    <rect x="176" y="80" width="8" height="8"/>
    <rect x="184" y="72" width="8" height="8"/>
    <rect x="184" y="64" width="8" height="8"/>
    <rect x="184" y="56" width="8" height="8"/>
    <rect x="176" y="48" width="8" height="8"/>
    
    <!-- Contorno das nuvens arredondadas -->
    <rect x="24" y="40" width="8" height="8"/>
    <rect x="32" y="32" width="8" height="8"/>
    <rect x="40" y="24" width="8" height="8"/>
    <rect x="48" y="24" width="8" height="8"/>
    <rect x="56" y="32" width="8" height="8"/>
    
    <rect x="72" y="32" width="8" height="8"/>
    <rect x="80" y="24" width="8" height="8"/>
    <rect x="88" y="16" width="8" height="8"/>
    <rect x="96" y="16" width="8" height="8"/>
    <rect x="104" y="24" width="8" height="8"/>
    
    <rect x="120" y="24" width="8" height="8"/>
    <rect x="128" y="16" width="8" height="8"/>
    <rect x="136" y="8" width="8" height="8"/>
    <rect x="144" y="8" width="8" height="8"/>
    <rect x="152" y="16" width="8" height="8"/>
    <rect x="160" y="24" width="8" height="8"/>
    <rect x="168" y="32" width="8" height="8"/>
  </g>
  
  <!-- Camada de sombra -->
  <g class="cloud-shadow">
    <!-- Base -->
    <rect x="24" y="80" width="8" height="8"/>
    <rect x="32" y="80" width="8" height="8"/>
    <rect x="40" y="80" width="8" height="8"/>
    <rect x="48" y="80" width="8" height="8"/>
    <rect x="56" y="80" width="8" height="8"/>
    <rect x="64" y="80" width="8" height="8"/>
    <rect x="72" y="80" width="8" height="8"/>
    <rect x="80" y="80" width="8" height="8"/>
    <rect x="88" y="80" width="8" height="8"/>
    <rect x="96" y="80" width="8" height="8"/>
    <rect x="104" y="80" width="8" height="8"/>
    <rect x="112" y="80" width="8" height="8"/>
    <rect x="120" y="80" width="8" height="8"/>
    <rect x="128" y="80" width="8" height="8"/>
    <rect x="136" y="80" width="8" height="8"/>
    <rect x="144" y="80" width="8" height="8"/>
    <rect x="152" y="80" width="8" height="8"/>
    <rect x="160" y="80" width="8" height="8"/>
    <rect x="168" y="80" width="8" height="8"/>
    
    <!-- Laterais -->
    <rect x="16" y="72" width="8" height="8"/>
    <rect x="16" y="64" width="8" height="8"/>
    <rect x="16" y="56" width="8" height="8"/>
    <rect x="24" y="48" width="8" height="8"/>
    
    <rect x="176" y="72" width="8" height="8"/>
    <rect x="176" y="64" width="8" height="8"/>
    <rect x="176" y="56" width="8" height="8"/>
    <rect x="168" y="48" width="8" height="8"/>
    
    <!-- Sombra das nuvens arredondadas -->
    <rect x="32" y="40" width="8" height="8"/>
    <rect x="40" y="32" width="8" height="8"/>
    <rect x="48" y="32" width="8" height="8"/>
    
    <rect x="80" y="32" width="8" height="8"/>
    <rect x="88" y="24" width="8" height="8"/>
    <rect x="96" y="24" width="8" height="8"/>
    
    <rect x="128" y="24" width="8" height="8"/>
    <rect x="136" y="16" width="8" height="8"/>
    <rect x="144" y="16" width="8" height="8"/>
    <rect x="152" y="24" width="8" height="8"/>
    <rect x="160" y="32" width="8" height="8"/>
  </g>
  
  <!-- Camada escura -->
  <g class="cloud-dark">
    <!-- Base principal -->
    <rect x="16" y="72" width="8" height="8"/>
    <rect x="24" y="72" width="8" height="8"/>
    <rect x="32" y="72" width="8" height="8"/>
    <rect x="40" y="72" width="8" height="8"/>
    <rect x="48" y="72" width="8" height="8"/>
    <rect x="56" y="72" width="8" height="8"/>
    <rect x="64" y="72" width="8" height="8"/>
    <rect x="72" y="72" width="8" height="8"/>
    <rect x="80" y="72" width="8" height="8"/>
    <rect x="88" y="72" width="8" height="8"/>
    <rect x="96" y="72" width="8" height="8"/>
    <rect x="104" y="72" width="8" height="8"/>
    <rect x="112" y="72" width="8" height="8"/>
    <rect x="120" y="72" width="8" height="8"/>
    <rect x="128" y="72" width="8" height="8"/>
    <rect x="136" y="72" width="8" height="8"/>
    <rect x="144" y="72" width="8" height="8"/>
    <rect x="152" y="72" width="8" height="8"/>
    <rect x="160" y="72" width="8" height="8"/>
    <rect x="168" y="72" width="8" height="8"/>
    <rect x="176" y="72" width="8" height="8"/>
    
    <!-- Laterais -->
    <rect x="16" y="64" width="8" height="8"/>
    <rect x="16" y="56" width="8" height="8"/>
    <rect x="24" y="48" width="8" height="8"/>
    
    <rect x="176" y="64" width="8" height="8"/>
    <rect x="176" y="56" width="8" height="8"/>
    <rect x="168" y="48" width="8" height="8"/>
    
    <!-- Nuvens arredondadas - primeira -->
    <rect x="24" y="56" width="8" height="8"/>
    <rect x="32" y="48" width="8" height="8"/>
    <rect x="40" y="40" width="8" height="8"/>
    <rect x="48" y="40" width="8" height="8"/>
    <rect x="56" y="48" width="8" height="8"/>
    <rect x="64" y="56" width="8" height="8"/>
    
    <!-- Nuvem central -->
    <rect x="72" y="48" width="8" height="8"/>
    <rect x="80" y="40" width="8" height="8"/>
    <rect x="88" y="32" width="8" height="8"/>
    <rect x="96" y="32" width="8" height="8"/>
    <rect x="104" y="40" width="8" height="8"/>
    <rect x="112" y="48" width="8" height="8"/>
    
    <!-- Nuvem maior da direita -->
    <rect x="120" y="40" width="8" height="8"/>
    <rect x="128" y="32" width="8" height="8"/>
    <rect x="136" y="24" width="8" height="8"/>
    <rect x="144" y="24" width="8" height="8"/>
    <rect x="152" y="32" width="8" height="8"/>
    <rect x="160" y="40" width="8" height="8"/>
  </g>
  
  <!-- Camada média -->
  <g class="cloud-mid">
    <!-- Base -->
    <rect x="16" y="64" width="8" height="8"/>
    <rect x="24" y="64" width="8" height="8"/>
    <rect x="32" y="64" width="8" height="8"/>
    <rect x="40" y="64" width="8" height="8"/>
    <rect x="48" y="64" width="8" height="8"/>
    <rect x="56" y="64" width="8" height="8"/>
    <rect x="64" y="64" width="8" height="8"/>
    <rect x="72" y="64" width="8" height="8"/>
    <rect x="80" y="64" width="8" height="8"/>
    <rect x="88" y="64" width="8" height="8"/>
    <rect x="96" y="64" width="8" height="8"/>
    <rect x="104" y="64" width="8" height="8"/>
    <rect x="112" y="64" width="8" height="8"/>
    <rect x="120" y="64" width="8" height="8"/>
    <rect x="128" y="64" width="8" height="8"/>
    <rect x="136" y="64" width="8" height="8"/>
    <rect x="144" y="64" width="8" height="8"/>
    <rect x="152" y="64" width="8" height="8"/>
    <rect x="160" y="64" width="8" height="8"/>
    <rect x="168" y="64" width="8" height="8"/>
    <rect x="176" y="64" width="8" height="8"/>
    
    <!-- Laterais -->
    <rect x="16" y="56" width="8" height="8"/>
    <rect x="24" y="48" width="8" height="8"/>
    <rect x="168" y="48" width="8" height="8"/>
    <rect x="176" y="56" width="8" height="8"/>
    
    <!-- Primeira nuvem arredondada -->
    <rect x="24" y="56" width="8" height="8"/>
    <rect x="32" y="48" width="8" height="8"/>
    <rect x="40" y="40" width="8" height="8"/>
    <rect x="48" y="40" width="8" height="8"/>
    <rect x="56" y="48" width="8" height="8"/>
    <rect x="64" y="56" width="8" height="8"/>
    
    <!-- Nuvem central -->
    <rect x="72" y="48" width="8" height="8"/>
    <rect x="80" y="40" width="8" height="8"/>
    <rect x="88" y="32" width="8" height="8"/>
    <rect x="96" y="32" width="8" height="8"/>
    <rect x="104" y="40" width="8" height="8"/>
    <rect x="112" y="48" width="8" height="8"/>
    
    <!-- Nuvem direita -->
    <rect x="120" y="40" width="8" height="8"/>
    <rect x="128" y="32" width="8" height="8"/>
    <rect x="136" y="24" width="8" height="8"/>
    <rect x="144" y="24" width="8" height="8"/>
    <rect x="152" y="32" width="8" height="8"/>
    <rect x="160" y="40" width="8" height="8"/>
  </g>
  
  <!-- Camada clara -->
  <g class="cloud-light">
    <!-- Base -->
    <rect x="16" y="56" width="8" height="8"/>
    <rect x="24" y="56" width="8" height="8"/>
    <rect x="32" y="56" width="8" height="8"/>
    <rect x="40" y="56" width="8" height="8"/>
    <rect x="48" y="56" width="8" height="8"/>
    <rect x="56" y="56" width="8" height="8"/>
    <rect x="64" y="56" width="8" height="8"/>
    <rect x="72" y="56" width="8" height="8"/>
    <rect x="80" y="56" width="8" height="8"/>
    <rect x="88" y="56" width="8" height="8"/>
    <rect x="96" y="56" width="8" height="8"/>
    <rect x="104" y="56" width="8" height="8"/>
    <rect x="112" y="56" width="8" height="8"/>
    <rect x="120" y="56" width="8" height="8"/>
    <rect x="128" y="56" width="8" height="8"/>
    <rect x="136" y="56" width="8" height="8"/>
    <rect x="144" y="56" width="8" height="8"/>
    <rect x="152" y="56" width="8" height="8"/>
    <rect x="160" y="56" width="8" height="8"/>
    <rect x="168" y="56" width="8" height="8"/>
    <rect x="176" y="56" width="8" height="8"/>
    
    <!-- Laterais -->
    <rect x="24" y="48" width="8" height="8"/>
    <rect x="168" y="48" width="8" height="8"/>
    
    <!-- Primeira nuvem - interior */
    <rect x="32" y="48" width="8" height="8"/>
    <rect x="40" y="40" width="8" height="8"/>
    <rect x="48" y="40" width="8" height="8"/>
    <rect x="56" y="48" width="8" height="8"/>
    
    <!-- Nuvem central - interior -->
    <rect x="72" y="48" width="8" height="8"/>
    <rect x="80" y="40" width="8" height="8"/>
    <rect x="88" y="32" width="8" height="8"/>
    <rect x="96" y="32" width="8" height="8"/>
    <rect x="104" y="40" width="8" height="8"/>
    <rect x="112" y="48" width="8" height="8"/>
    
    <!-- Nuvem direita - interior -->
    <rect x="120" y="40" width="8" height="8"/>
    <rect x="128" y="32" width="8" height="8"/>
    <rect x="136" y="24" width="8" height="8"/>
    <rect x="144" y="24" width="8" height="8"/>
    <rect x="152" y="32" width="8" height="8"/>
    <rect x="160" y="40" width="8" height="8"/>
  </g>
  
  <!-- Camada de highlights -->
  <g class="cloud-highlight">
    <!-- Highlights da primeira nuvem -->
    <rect x="32" y="40" width="8" height="8"/>
    <rect x="40" y="32" width="8" height="8"/>
    <rect x="48" y="32" width="8" height="8"/>
    <rect x="56" y="40" width="8" height="8"/>
    
    <!-- Highlights da nuvem central -->
    <rect x="80" y="32" width="8" height="8"/>
    <rect x="88" y="24" width="8" height="8"/>
    <rect x="96" y="24" width="8" height="8"/>
    <rect x="104" y="32" width="8" height="8"/>
    
    <!-- Highlights da nuvem direita */
    <rect x="128" y="24" width="8" height="8"/>
    <rect x="136" y="16" width="8" height="8"/>
    <rect x="144" y="16" width="8" height="8"/>
    <rect x="152" y="24" width="8" height="8"/>
  </g>
</svg>